<svg id="Layer_1" enable-background="new 0 0 512.004 512.004" height="512" viewBox="0 0 512.004 512.004" width="512" xmlns="http://www.w3.org/2000/svg"><g><path d="m488.513 162.931h-465.02c-12.952 0-23.489 10.537-23.489 23.49v287.882c0 6.941 3.049 13.494 8.366 17.977.029.025.06.05.089.075 4.225 3.506 9.563 5.438 15.034 5.438h465.021c5.503 0 10.861-1.948 15.098-5.492 5.334-4.47 8.393-11.03 8.393-17.998v-287.882c-.001-12.953-10.539-23.49-23.492-23.49z" fill="#ffda2c"/><path d="m446.085 14.211h-380.163c-8.284 0-15 6.716-15 15v306.126c0 5.687 3.216 10.884 8.305 13.423l93.432 46.607 103.374-65.005 97.513 58.061 99.74-39.877c4.809-2.631 7.8-7.677 7.8-13.159v-306.176c-.001-8.284-6.717-15-15.001-15z" fill="#f4f1f1"/><path d="m488.514 162.931h-232.512v334.862h232.512c5.503 0 10.861-1.948 15.098-5.492 5.334-4.47 8.393-11.03 8.393-17.998v-287.882c-.001-12.953-10.539-23.49-23.491-23.49z" fill="#febf00"/><path d="m446.085 14.211h-190.083v316.17l.031-.019 92.571 66.07 104.681-47.887c4.809-2.631 7.8-7.677 7.8-13.159v-306.175c0-8.284-6.716-15-15-15z" fill="#e7dfdd"/><path d="m358.986 274.87c-16.29-5.138-71.669-16.907-74.019-17.405-7.722-1.639-50.205-1.637-57.927 0-2.349.498-57.732 12.267-74.021 17.405-25.694 8.104-42.297 28.88-42.297 52.929v48.389l55.832 31.506 89.531-77.332 80.394 82.671 64.804-36.845v-48.389c-.001-24.049-16.603-44.824-42.297-52.929z" fill="#5ecbf1"/><path d="m358.986 274.87c-16.29-5.138-71.669-16.907-74.019-17.405-3.861-.82-16.414-1.229-28.965-1.229v74.196l.083-.071 80.394 82.671 64.804-36.845v-48.389c-.001-24.048-16.603-44.823-42.297-52.928z" fill="#4793ff"/><path d="m322.193 128.886c-.001 0-.001 0 0 0-7.89 0-125.065 15.813-132.381 15.813-7.89 0-14.286 6.392-14.286 14.277l.001 42.762c-.091 18.082 3.841 33.033 12.376 47.053 7.499 12.321 18.282 23.466 34.959 36.137 9.447 7.176 21.216 11.128 33.14 11.128 11.925 0 23.694-3.952 33.139-11.128 16.677-12.67 27.46-23.815 34.959-36.136 8.534-14.019 12.467-28.956 12.377-46.934l.003-58.694c-.002-7.885-6.397-14.278-14.287-14.278z" fill="#e5ae8c"/><path d="m322.193 128.886c-.001 0-.001 0 0 0-3.936 0-35.068 3.935-66.191 7.879v159.29c11.924 0 23.693-3.953 33.138-11.128 16.677-12.67 27.46-23.815 34.959-36.136 8.534-14.019 12.467-28.956 12.377-46.934l.003-58.694c-.001-7.884-6.396-14.277-14.286-14.277z" fill="#dd9366"/><path d="m367.081 76.652h-124.42c-37.078 0-67.136 30.038-67.136 67.093v40.382c3.137 7.021 8.794 10.183 14.283 10.183 4.048 0 8.001-1.722 10.768-4.891l27.412-31.397h86.243c36.975 0 67.064-30.026 67.136-66.96.016-7.925-6.355-14.41-14.286-14.41z" fill="#38336b"/><path d="m381.367 91.062c.015-7.925-6.356-14.41-14.286-14.41h-111.08v81.37h58.23c36.975 0 67.064-30.026 67.136-66.96z" fill="#2e2654"/><path d="m512 303.902v170.4c0 5.39-1.82 10.54-5.14 14.66l-12.88-8.16-165.338-79.1z" fill="#ff9f00"/><path d="m172.307 395.367-167.007 93.785c-3.41-4.16-5.3-9.39-5.3-14.85v-170.36z" fill="#febf00"/><path d="m506.86 488.962c-.95 1.21-2.04 2.33-3.25 3.34-4.24 3.54-9.59 5.49-15.1 5.49h-465.02c-5.47 0-10.81-1.93-15.03-5.44-.03-.02-.06-.05-.09-.07-1.13-.95-2.16-2-3.07-3.13l153.71-100.84 24.33-15.96 62.33-40.9c6.47-4.24 14.84-4.24 21.31.02l62.13 40.88 24.43 16.07 140.44 92.38z" fill="#ffda2c"/><path d="m493.98 480.802-140.44-92.38-24.43-16.07-62.13-40.88c-3.329-2.192-7.161-3.247-10.978-3.186v169.506h232.508c5.51 0 10.86-1.95 15.1-5.49 1.21-1.01 2.3-2.13 3.25-3.34z" fill="#febf00"/></g></svg>